%TF.GenerationSoftware,KiCad,Pcbnew,6.0.4*%
%TF.CreationDate,2022-04-29T13:24:53-05:00*%
%TF.ProjectId,gpsdo-controller,67707364-6f2d-4636-9f6e-74726f6c6c65,rev?*%
%TF.SameCoordinates,Original*%
%TF.FileFunction,Soldermask,Top*%
%TF.FilePolarity,Negative*%
%FSLAX46Y46*%
G04 Gerber Fmt 4.6, Leading zero omitted, Abs format (unit mm)*
G04 Created by KiCad (PCBNEW 6.0.4) date 2022-04-29 13:24:53*
%MOMM*%
%LPD*%
G01*
G04 APERTURE LIST*
G04 Aperture macros list*
%AMRoundRect*
0 Rectangle with rounded corners*
0 $1 Rounding radius*
0 $2 $3 $4 $5 $6 $7 $8 $9 X,Y pos of 4 corners*
0 Add a 4 corners polygon primitive as box body*
4,1,4,$2,$3,$4,$5,$6,$7,$8,$9,$2,$3,0*
0 Add four circle primitives for the rounded corners*
1,1,$1+$1,$2,$3*
1,1,$1+$1,$4,$5*
1,1,$1+$1,$6,$7*
1,1,$1+$1,$8,$9*
0 Add four rect primitives between the rounded corners*
20,1,$1+$1,$2,$3,$4,$5,0*
20,1,$1+$1,$4,$5,$6,$7,0*
20,1,$1+$1,$6,$7,$8,$9,0*
20,1,$1+$1,$8,$9,$2,$3,0*%
G04 Aperture macros list end*
%ADD10C,1.541600*%
%ADD11RoundRect,0.300800X-0.337500X-0.475000X0.337500X-0.475000X0.337500X0.475000X-0.337500X0.475000X0*%
%ADD12RoundRect,0.300800X0.337500X0.475000X-0.337500X0.475000X-0.337500X-0.475000X0.337500X-0.475000X0*%
%ADD13RoundRect,0.050800X-0.850000X-0.850000X0.850000X-0.850000X0.850000X0.850000X-0.850000X0.850000X0*%
%ADD14O,1.801600X1.801600*%
%ADD15RoundRect,0.300800X0.450000X-0.350000X0.450000X0.350000X-0.450000X0.350000X-0.450000X-0.350000X0*%
%ADD16RoundRect,0.300800X-0.350000X-0.450000X0.350000X-0.450000X0.350000X0.450000X-0.350000X0.450000X0*%
%ADD17RoundRect,0.050800X-0.850000X0.850000X-0.850000X-0.850000X0.850000X-0.850000X0.850000X0.850000X0*%
%ADD18RoundRect,0.050800X0.600000X-0.450000X0.600000X0.450000X-0.600000X0.450000X-0.600000X-0.450000X0*%
%ADD19RoundRect,0.050800X-0.800000X0.800000X-0.800000X-0.800000X0.800000X-0.800000X0.800000X0.800000X0*%
%ADD20O,1.701600X1.701600*%
%ADD21RoundRect,0.300800X-0.450000X0.350000X-0.450000X-0.350000X0.450000X-0.350000X0.450000X0.350000X0*%
%ADD22RoundRect,0.050800X0.850000X0.850000X-0.850000X0.850000X-0.850000X-0.850000X0.850000X-0.850000X0*%
%ADD23RoundRect,0.300800X0.350000X0.450000X-0.350000X0.450000X-0.350000X-0.450000X0.350000X-0.450000X0*%
%ADD24RoundRect,0.300800X0.400000X1.075000X-0.400000X1.075000X-0.400000X-1.075000X0.400000X-1.075000X0*%
%ADD25RoundRect,0.050800X1.000000X-0.952500X1.000000X0.952500X-1.000000X0.952500X-1.000000X-0.952500X0*%
%ADD26O,2.101600X2.006600*%
%ADD27RoundRect,0.300800X0.475000X-0.337500X0.475000X0.337500X-0.475000X0.337500X-0.475000X-0.337500X0*%
%ADD28C,3.101600*%
%ADD29RoundRect,0.200800X-0.512500X-0.150000X0.512500X-0.150000X0.512500X0.150000X-0.512500X0.150000X0*%
%ADD30RoundRect,0.300800X-0.475000X0.337500X-0.475000X-0.337500X0.475000X-0.337500X0.475000X0.337500X0*%
%ADD31C,2.151600*%
%ADD32C,2.351600*%
%ADD33C,5.701600*%
%ADD34RoundRect,0.050800X0.750000X0.200000X-0.750000X0.200000X-0.750000X-0.200000X0.750000X-0.200000X0*%
%ADD35RoundRect,0.050800X0.850000X-0.850000X0.850000X0.850000X-0.850000X0.850000X-0.850000X-0.850000X0*%
G04 APERTURE END LIST*
D10*
%TO.C,RV2*%
X99205000Y-68570000D03*
X101745000Y-71110000D03*
X99205000Y-73650000D03*
%TD*%
D11*
%TO.C,C2*%
X94445000Y-57150000D03*
X96520000Y-57150000D03*
%TD*%
D12*
%TO.C,C5*%
X135933000Y-67056000D03*
X133858000Y-67056000D03*
%TD*%
D13*
%TO.C,J5*%
X83820000Y-110500000D03*
D14*
X83820000Y-113040000D03*
X83820000Y-115580000D03*
X83820000Y-118120000D03*
%TD*%
D15*
%TO.C,R17*%
X93218000Y-79486000D03*
X93218000Y-77486000D03*
%TD*%
%TO.C,R2*%
X138430000Y-76200000D03*
X138430000Y-74200000D03*
%TD*%
D16*
%TO.C,R24*%
X117211600Y-64262000D03*
X119211600Y-64262000D03*
%TD*%
D11*
%TO.C,C4*%
X133858000Y-64770000D03*
X135933000Y-64770000D03*
%TD*%
D12*
%TO.C,C14*%
X89683500Y-82448400D03*
X87608500Y-82448400D03*
%TD*%
D13*
%TO.C,J8*%
X147320000Y-53340000D03*
D14*
X147320000Y-55880000D03*
X147320000Y-58420000D03*
%TD*%
D17*
%TO.C,J9*%
X123175000Y-45720000D03*
D14*
X120635000Y-45720000D03*
X118095000Y-45720000D03*
X115555000Y-45720000D03*
X113015000Y-45720000D03*
X110475000Y-45720000D03*
X107935000Y-45720000D03*
X105395000Y-45720000D03*
%TD*%
D11*
%TO.C,C6*%
X137160000Y-54610000D03*
X139235000Y-54610000D03*
%TD*%
D18*
%TO.C,D1*%
X125577600Y-64541400D03*
X125577600Y-61241400D03*
%TD*%
D16*
%TO.C,R6*%
X94520000Y-59690000D03*
X96520000Y-59690000D03*
%TD*%
D15*
%TO.C,R21*%
X144145000Y-55245000D03*
X144145000Y-53245000D03*
%TD*%
D19*
%TO.C,U5*%
X114300000Y-67310000D03*
D20*
X111760000Y-67310000D03*
X109220000Y-67310000D03*
X106680000Y-67310000D03*
X106680000Y-74930000D03*
X109220000Y-74930000D03*
X111760000Y-74930000D03*
X114300000Y-74930000D03*
%TD*%
D21*
%TO.C,R15*%
X118110000Y-70390000D03*
X118110000Y-72390000D03*
%TD*%
D22*
%TO.C,J3*%
X84328000Y-71501000D03*
D14*
X84328000Y-68961000D03*
X84328000Y-66421000D03*
X84328000Y-63881000D03*
X84328000Y-61341000D03*
X84328000Y-58801000D03*
X84328000Y-56261000D03*
%TD*%
D23*
%TO.C,R13*%
X86868000Y-75184000D03*
X84868000Y-75184000D03*
%TD*%
D21*
%TO.C,R22*%
X118110000Y-74692000D03*
X118110000Y-76692000D03*
%TD*%
D24*
%TO.C,R12*%
X86614000Y-77978000D03*
X83514000Y-77978000D03*
%TD*%
D16*
%TO.C,R1*%
X126762000Y-78740000D03*
X128762000Y-78740000D03*
%TD*%
D21*
%TO.C,R20*%
X131318000Y-68088000D03*
X131318000Y-70088000D03*
%TD*%
D25*
%TO.C,U6*%
X83820000Y-88900000D03*
D26*
X83820000Y-86360000D03*
X83820000Y-83820000D03*
%TD*%
D27*
%TO.C,C1*%
X128143000Y-76221500D03*
X128143000Y-74146500D03*
%TD*%
D23*
%TO.C,R25*%
X123317000Y-64287400D03*
X121317000Y-64287400D03*
%TD*%
D11*
%TO.C,C15*%
X109220000Y-77470000D03*
X111295000Y-77470000D03*
%TD*%
D28*
%TO.C,U4*%
X140380000Y-118870000D03*
X119380000Y-118870000D03*
X98380000Y-118870000D03*
X98380000Y-86870000D03*
X140380000Y-86870000D03*
%TD*%
D29*
%TO.C,U1*%
X133615000Y-70170000D03*
X133615000Y-71120000D03*
X133615000Y-72070000D03*
X135890000Y-72070000D03*
X135890000Y-71120000D03*
X135890000Y-70170000D03*
%TD*%
D10*
%TO.C,RV1*%
X90424000Y-66548000D03*
X87884000Y-69088000D03*
X90424000Y-71628000D03*
%TD*%
D21*
%TO.C,R16*%
X95504000Y-75216000D03*
X95504000Y-77216000D03*
%TD*%
D30*
%TO.C,C11*%
X91440000Y-57150000D03*
X91440000Y-59225000D03*
%TD*%
D31*
%TO.C,J1*%
X144780000Y-71120000D03*
D32*
X147320000Y-68580000D03*
X142240000Y-68580000D03*
X147320000Y-73660000D03*
X142240000Y-73660000D03*
%TD*%
D12*
%TO.C,C9*%
X110025000Y-61925200D03*
X107950000Y-61925200D03*
%TD*%
D16*
%TO.C,R3*%
X126254000Y-71628000D03*
X128254000Y-71628000D03*
%TD*%
D12*
%TO.C,C12*%
X89327900Y-88544400D03*
X87252900Y-88544400D03*
%TD*%
D17*
%TO.C,J6*%
X139700000Y-45720000D03*
D14*
X137160000Y-45720000D03*
X134620000Y-45720000D03*
X132080000Y-45720000D03*
X129540000Y-45720000D03*
%TD*%
D23*
%TO.C,R10*%
X139160000Y-52070000D03*
X137160000Y-52070000D03*
%TD*%
D33*
%TO.C,H2*%
X147320000Y-127000000D03*
%TD*%
D11*
%TO.C,C3*%
X131275000Y-78740000D03*
X133350000Y-78740000D03*
%TD*%
D17*
%TO.C,J2*%
X89408000Y-51054000D03*
D14*
X86868000Y-51054000D03*
X84328000Y-51054000D03*
%TD*%
D23*
%TO.C,R5*%
X133318000Y-76073000D03*
X131318000Y-76073000D03*
%TD*%
D33*
%TO.C,H3*%
X83820000Y-43180000D03*
%TD*%
D12*
%TO.C,C8*%
X114724000Y-61925200D03*
X112649000Y-61925200D03*
%TD*%
D23*
%TO.C,R23*%
X118287800Y-78740000D03*
X116287800Y-78740000D03*
%TD*%
%TO.C,R7*%
X96520000Y-62230000D03*
X94520000Y-62230000D03*
%TD*%
D34*
%TO.C,U2*%
X128076000Y-69230000D03*
X128076000Y-68580000D03*
X128076000Y-67930000D03*
X125416000Y-67930000D03*
X125416000Y-69230000D03*
%TD*%
D16*
%TO.C,R18*%
X109252000Y-79502000D03*
X111252000Y-79502000D03*
%TD*%
D21*
%TO.C,R11*%
X91440000Y-61230000D03*
X91440000Y-63230000D03*
%TD*%
D23*
%TO.C,R8*%
X139160000Y-49530000D03*
X137160000Y-49530000D03*
%TD*%
D11*
%TO.C,C18*%
X117101800Y-61925200D03*
X119176800Y-61925200D03*
%TD*%
D33*
%TO.C,H1*%
X147320000Y-43180000D03*
%TD*%
D15*
%TO.C,R14*%
X90932000Y-77438000D03*
X90932000Y-75438000D03*
%TD*%
D12*
%TO.C,C13*%
X89636600Y-84734400D03*
X87561600Y-84734400D03*
%TD*%
D15*
%TO.C,R19*%
X144145000Y-60690000D03*
X144145000Y-58690000D03*
%TD*%
D30*
%TO.C,C7*%
X122936000Y-69596000D03*
X122936000Y-71671000D03*
%TD*%
D21*
%TO.C,R9*%
X138430000Y-70120000D03*
X138430000Y-72120000D03*
%TD*%
D12*
%TO.C,C10*%
X89349400Y-90906600D03*
X87274400Y-90906600D03*
%TD*%
D11*
%TO.C,C17*%
X87376000Y-99060000D03*
X89451000Y-99060000D03*
%TD*%
D13*
%TO.C,J7*%
X83820000Y-99060000D03*
D14*
X83820000Y-101600000D03*
%TD*%
D35*
%TO.C,J4*%
X89916000Y-45720000D03*
D14*
X92456000Y-45720000D03*
X94996000Y-45720000D03*
X97536000Y-45720000D03*
X100076000Y-45720000D03*
%TD*%
D16*
%TO.C,R4*%
X136398000Y-78740000D03*
X138398000Y-78740000D03*
%TD*%
D19*
%TO.C,U3*%
X133340000Y-50810000D03*
D20*
X130800000Y-50810000D03*
X128260000Y-50810000D03*
X125720000Y-50810000D03*
X123180000Y-50810000D03*
X120640000Y-50810000D03*
X118100000Y-50810000D03*
X115560000Y-50810000D03*
X113020000Y-50810000D03*
X110480000Y-50810000D03*
X107940000Y-50810000D03*
X105400000Y-50810000D03*
X102860000Y-50810000D03*
X100320000Y-50810000D03*
X100320000Y-58430000D03*
X102860000Y-58430000D03*
X105400000Y-58430000D03*
X107940000Y-58430000D03*
X110480000Y-58430000D03*
X113020000Y-58430000D03*
X115560000Y-58430000D03*
X118100000Y-58430000D03*
X120640000Y-58430000D03*
X123180000Y-58430000D03*
X125720000Y-58430000D03*
X128260000Y-58430000D03*
X130800000Y-58430000D03*
X133340000Y-58430000D03*
%TD*%
D11*
%TO.C,C16*%
X117305000Y-127000000D03*
X119380000Y-127000000D03*
%TD*%
D33*
%TO.C,H4*%
X83820000Y-127000000D03*
%TD*%
M02*
