M48
; DRILL file {KiCad 6.0.4} date Fri 29 Apr 2022 01:24:38 PM CDT
; FORMAT={-:-/ absolute / inch / decimal}
; #@! TF.CreationDate,2022-04-29T13:24:38-05:00
; #@! TF.GenerationSoftware,Kicad,Pcbnew,6.0.4
; #@! TF.FileFunction,Plated,1,2,PTH
FMAT,2
INCH
; #@! TA.AperFunction,Plated,PTH,ViaDrill
T1C0.0157
; #@! TA.AperFunction,Plated,PTH,ComponentDrill
T2C0.0315
; #@! TA.AperFunction,Plated,PTH,ComponentDrill
T3C0.0394
; #@! TA.AperFunction,Plated,PTH,ComponentDrill
T4C0.0433
; #@! TA.AperFunction,Plated,PTH,ComponentDrill
T5C0.0591
; #@! TA.AperFunction,Plated,PTH,ComponentDrill
T6C0.0669
; #@! TA.AperFunction,Plated,PTH,ComponentDrill
T7C0.1260
%
G90
G05
T1
X3.2Y-3.7
X3.2Y-4.2
X3.2Y-4.8
X3.4Y-3.7
X3.5Y-4.0
X3.5Y-4.2
X3.5Y-4.4
X3.5Y-4.6
X3.5Y-4.8
X3.5Y-5.0
X3.516Y-3.435
X3.57Y-3.581
X3.579Y-3.247
X3.58Y-3.1
X3.58Y-3.337
X3.58Y-3.9
X3.6Y-1.7
X3.6Y-1.9
X3.6Y-2.19
X3.63Y-3.6
X3.64Y-3.235
X3.67Y-3.18
X3.69Y-2.52
X3.7Y-2.0
X3.7Y-3.8
X3.7Y-4.0
X3.7Y-4.2
X3.7Y-4.4
X3.7Y-4.6
X3.7Y-4.8
X3.7Y-5.0
X3.72Y-2.19
X3.75Y-2.64
X3.75Y-2.82
X3.795Y-2.565
X3.8Y-1.7
X3.85Y-2.2
X3.85Y-2.3
X3.87Y-3.04
X3.9Y-3.2
X3.9Y-3.6
X3.9Y-3.8
X3.9Y-4.0
X3.9Y-4.2
X3.9Y-4.4
X3.9Y-4.8
X3.9Y-5.0
X4.0Y-1.7
X4.0Y-2.96
X4.05Y-2.45
X4.1Y-2.4
X4.1Y-2.7
X4.1Y-2.8
X4.1Y-2.9
X4.1Y-3.2
X4.1Y-3.6
X4.1Y-3.8
X4.1Y-4.0
X4.1Y-4.2
X4.1Y-4.4
X4.1Y-4.6
X4.1Y-4.8
X4.1Y-5.0
X4.11Y-3.005
X4.15Y-2.45
X4.2Y-1.7
X4.2Y-2.1
X4.2Y-2.2
X4.2Y-2.8
X4.203Y-2.438
X4.24Y-3.015
X4.3Y-2.1
X4.3Y-2.2
X4.3Y-2.8
X4.3Y-3.4
X4.3Y-3.6
X4.3Y-3.8
X4.3Y-4.0
X4.3Y-4.2
X4.3Y-4.4
X4.3Y-4.6
X4.3Y-4.8
X4.3Y-5.0
X4.4Y-1.7
X4.4Y-2.1
X4.486Y-3.201
X4.493Y-2.377
X4.5Y-2.1
X4.5Y-2.8
X4.5Y-3.4
X4.5Y-3.6
X4.5Y-3.8
X4.5Y-4.0
X4.5Y-4.2
X4.5Y-4.4
X4.5Y-4.6
X4.5Y-4.8
X4.516Y-2.489
X4.569Y-2.469
X4.571Y-2.525
X4.6Y-1.7
X4.6Y-2.1
X4.6Y-2.2
X4.61Y-2.375
X4.7Y-2.1
X4.7Y-2.2
X4.7Y-3.4
X4.7Y-3.6
X4.7Y-3.8
X4.7Y-4.0
X4.7Y-4.2
X4.7Y-4.4
X4.7Y-4.8
X4.8Y-1.7
X4.8Y-2.1
X4.8Y-2.2
X4.8Y-3.0
X4.8Y-3.1
X4.839Y-2.875
X4.88Y-2.67
X4.9Y-2.1
X4.9Y-2.2
X4.9Y-3.0
X4.9Y-3.4
X4.9Y-3.6
X4.9Y-3.8
X4.9Y-4.0
X4.9Y-4.2
X4.9Y-4.4
X4.9Y-4.6
X4.9Y-4.8
X4.9Y-5.0
X4.91Y-2.82
X4.933Y-3.101
X4.969Y-2.879
X5.0Y-1.7
X5.0Y-2.1
X5.0Y-2.2
X5.1Y-2.1
X5.1Y-2.2
X5.1Y-3.4
X5.1Y-3.6
X5.1Y-3.8
X5.1Y-4.0
X5.1Y-4.2
X5.1Y-4.4
X5.1Y-4.6
X5.1Y-4.8
X5.1Y-5.0
X5.115Y-2.82
X5.116Y-2.924
X5.122Y-3.101
X5.2Y-1.7
X5.209Y-2.811
X5.221Y-2.64
X5.223Y-2.553
X5.23Y-2.71
X5.251Y-2.1
X5.251Y-2.204
X5.26Y-2.885
X5.291Y-2.417
X5.3Y-3.6
X5.3Y-3.8
X5.3Y-4.0
X5.3Y-4.2
X5.3Y-4.4
X5.3Y-4.6
X5.3Y-4.8
X5.3Y-5.0
X5.34Y-2.91
X5.383Y-2.319
X5.4Y-1.7
X5.455Y-2.226
X5.5Y-3.2
X5.5Y-3.6
X5.5Y-3.8
X5.5Y-4.0
X5.5Y-4.2
X5.5Y-4.4
X5.5Y-4.8
X5.5Y-5.0
X5.6Y-1.7
X5.6Y-1.9
X5.6Y-2.0
X5.6Y-2.1
X5.7Y-2.6
X5.7Y-3.0
X5.7Y-3.2
X5.7Y-3.4
X5.7Y-3.6
X5.7Y-3.8
X5.7Y-4.0
X5.7Y-4.2
X5.7Y-4.4
X5.7Y-4.6
X5.7Y-4.8
X5.9Y-2.0
X5.9Y-2.2
X5.9Y-2.4
X5.9Y-2.6
X5.9Y-2.8
X5.9Y-3.0
X5.9Y-3.2
X5.9Y-3.4
X5.9Y-3.6
X5.9Y-3.8
X5.9Y-4.0
X5.9Y-4.2
X5.9Y-4.4
X5.9Y-4.6
X5.9Y-4.8
T2
X3.46Y-2.72
X3.56Y-2.62
X3.56Y-2.82
X3.9057Y-2.6996
X3.9057Y-2.8996
X3.9496Y-2.0004
X3.9496Y-2.3004
X4.0057Y-2.7996
X4.0496Y-2.0004
X4.0496Y-2.3004
X4.1496Y-2.0004
X4.1496Y-2.3004
X4.2Y-2.65
X4.2Y-2.95
X4.2496Y-2.0004
X4.2496Y-2.3004
X4.3Y-2.65
X4.3Y-2.95
X4.3496Y-2.0004
X4.3496Y-2.3004
X4.4Y-2.65
X4.4Y-2.95
X4.4496Y-2.0004
X4.4496Y-2.3004
X4.5Y-2.65
X4.5Y-2.95
X4.5496Y-2.0004
X4.5496Y-2.3004
X4.6496Y-2.0004
X4.6496Y-2.3004
X4.7496Y-2.0004
X4.7496Y-2.3004
X4.8496Y-2.0004
X4.8496Y-2.3004
X4.9496Y-2.0004
X4.9496Y-2.3004
X5.0496Y-2.0004
X5.0496Y-2.3004
X5.1496Y-2.0004
X5.1496Y-2.3004
X5.2496Y-2.0004
X5.2496Y-2.3004
T3
X3.3Y-3.9
X3.3Y-4.0
X3.3Y-4.3504
X3.3Y-4.4504
X3.3Y-4.5504
X3.3Y-4.6504
X3.32Y-2.01
X3.32Y-2.215
X3.32Y-2.315
X3.32Y-2.415
X3.32Y-2.515
X3.32Y-2.615
X3.32Y-2.715
X3.32Y-2.815
X3.42Y-2.01
X3.52Y-2.01
X3.54Y-1.8
X3.64Y-1.8
X3.74Y-1.8
X3.84Y-1.8
X3.94Y-1.8
X4.1494Y-1.8
X4.2494Y-1.8
X4.3494Y-1.8
X4.4494Y-1.8
X4.5494Y-1.8
X4.6494Y-1.8
X4.7494Y-1.8
X4.8494Y-1.8
X5.1Y-1.8
X5.2Y-1.8
X5.3Y-1.8
X5.4Y-1.8
X5.5Y-1.8
X5.8Y-2.1
X5.8Y-2.2
X5.8Y-2.3
T4
X3.3Y-3.3
X3.3Y-3.4
X3.3Y-3.5
T5
X3.8732Y-3.4201
X3.8732Y-4.6799
X4.7Y-4.6799
X5.5268Y-3.4201
X5.5268Y-4.6799
X5.7Y-2.8
T6
X5.6Y-2.7
X5.6Y-2.9
X5.8Y-2.7
X5.8Y-2.9
T7
X3.3Y-1.7
X3.3Y-5.0
X5.8Y-1.7
X5.8Y-5.0
T0
M30
